<svg width="545" height="153" viewBox="0 0 545 153" fill="none" xmlns="http://www.w3.org/2000/svg">
<g clip-path="url(#clip0_62_55)">
<path d="M0 24.48C0 10.9601 10.9601 0 24.48 0H520.2C533.72 0 544.68 10.9601 544.68 24.48V128.52C544.68 142.04 533.72 153 520.2 153H24.48C10.9601 153 0 142.04 0 128.52V24.48Z" fill="#EB5E28"/>
<path d="M109.522 50.3175L109.455 50.278L109.299 50.2305C109.362 50.2833 109.44 50.3139 109.522 50.3175Z" fill="#0D0C22"/>
<path d="M109.549 50.3067C109.54 50.3056 109.532 50.3036 109.524 50.3008C109.523 50.3063 109.523 50.3118 109.524 50.3173C109.533 50.3161 109.541 50.3124 109.549 50.3067Z" fill="#0D0C22"/>
<path d="M109.523 50.3203H109.536V50.3125L109.523 50.3203Z" fill="#0D0C22"/>
<path d="M110.447 57.301L110.56 57.2365L110.602 57.2127L110.64 57.1719C110.569 57.2029 110.503 57.2466 110.447 57.301Z" fill="#0D0C22"/>
<path d="M109.715 50.4704L109.604 50.365L109.529 50.3242C109.57 50.3954 109.636 50.4479 109.715 50.4704Z" fill="#0D0C22"/>
<path d="M81.8806 118.354C81.7921 118.392 81.7147 118.452 81.6553 118.528L81.7251 118.483C81.7725 118.44 81.8397 118.388 81.8806 118.354Z" fill="#0D0C22"/>
<path d="M98.0456 115.174C98.0456 115.074 97.9968 115.092 98.0087 115.448C98.0087 115.419 98.0206 115.39 98.0258 115.362C98.0324 115.299 98.0377 115.237 98.0456 115.174Z" fill="#0D0C22"/>
<path d="M96.3766 118.354C96.2882 118.392 96.2108 118.452 96.1514 118.528L96.2212 118.483C96.2686 118.44 96.3358 118.388 96.3766 118.354Z" fill="#0D0C22"/>
<path d="M70.4891 119.109C70.422 119.051 70.3398 119.012 70.252 118.998C70.3231 119.033 70.3942 119.067 70.4417 119.093L70.4891 119.109Z" fill="#0D0C22"/>
<path d="M67.9304 116.656C67.92 116.552 67.8881 116.452 67.8369 116.361C67.8732 116.455 67.9035 116.552 67.9278 116.651L67.9304 116.656Z" fill="#0D0C22"/>
<path d="M85.1368 72.7731C81.6195 74.2788 77.628 75.986 72.4549 75.986C70.2908 75.9817 68.1373 75.6848 66.0527 75.1034L69.6306 111.837C69.7572 113.372 70.4567 114.804 71.59 115.847C72.7233 116.891 74.2076 117.47 75.7482 117.469C75.7482 117.469 80.8212 117.733 82.514 117.733C84.3358 117.733 89.7988 117.469 89.7988 117.469C91.3391 117.469 92.8231 116.89 93.9562 115.847C95.0892 114.803 95.7885 113.372 95.9151 111.837L99.7472 71.245C98.0347 70.6601 96.3064 70.2715 94.358 70.2715C90.9883 70.2702 88.2733 71.4307 85.1368 72.7731Z" fill="white"/>
<path d="M54.9844 57.1016L55.045 57.1582L55.0845 57.1819C55.0541 57.1517 55.0205 57.1247 54.9844 57.1016Z" fill="#0D0C22"/>
<path d="M116.299 53.7129L115.761 50.9953C115.277 48.5569 114.18 46.2529 111.677 45.3716C110.875 45.0897 109.964 44.9685 109.349 44.385C108.734 43.8014 108.552 42.8951 108.41 42.0546C108.147 40.512 107.899 38.9681 107.629 37.4282C107.396 36.1043 107.211 34.617 106.604 33.4025C105.814 31.7716 104.174 30.8179 102.543 30.1869C101.707 29.8749 100.854 29.611 99.9884 29.3965C95.9139 28.3215 91.63 27.9263 87.4382 27.7011C82.407 27.4235 77.3623 27.5071 72.343 27.9514C68.6071 28.2912 64.6723 28.7023 61.1221 29.9945C59.8245 30.4675 58.4875 31.0352 57.5008 32.0377C56.2902 33.2694 55.895 35.1743 56.7789 36.7102C57.4073 37.801 58.4717 38.5716 59.6006 39.0814C61.0711 39.7383 62.6068 40.2381 64.1822 40.5726C68.5689 41.5422 73.1124 41.9229 77.5939 42.0849C82.561 42.2854 87.5362 42.1229 92.4796 41.5988C93.7021 41.4645 94.9224 41.3033 96.1405 41.1154C97.575 40.8954 98.4958 39.0195 98.073 37.7127C97.5671 36.1504 96.2077 35.5444 94.6703 35.7802C94.4438 35.8158 94.2185 35.8487 93.9919 35.8817L93.8286 35.9054C93.3078 35.9712 92.787 36.0327 92.2662 36.0898C91.1904 36.2057 90.112 36.3006 89.0309 36.3743C86.6097 36.5429 84.1818 36.6207 81.7553 36.6246C79.371 36.6246 76.9853 36.5574 74.6062 36.4007C73.5207 36.3295 72.4379 36.2391 71.3577 36.1293C70.8663 36.0779 70.3763 36.0239 69.8862 35.9633L69.4199 35.904L69.3185 35.8896L68.835 35.8197C67.847 35.6709 66.859 35.4996 65.8816 35.2928C65.783 35.2709 65.6947 35.2161 65.6315 35.1373C65.5683 35.0585 65.5338 34.9604 65.5338 34.8594C65.5338 34.7584 65.5683 34.6604 65.6315 34.5816C65.6947 34.5028 65.783 34.4479 65.8816 34.426H65.9C66.7471 34.2455 67.6007 34.0914 68.4569 33.957C68.7424 33.9123 69.0287 33.8683 69.3158 33.8253H69.3237C69.8599 33.7897 70.3987 33.6936 70.9322 33.6303C75.574 33.1475 80.2434 32.9829 84.9077 33.1377C87.1721 33.2035 89.4353 33.3366 91.6892 33.5658C92.174 33.6159 92.6562 33.6686 93.1383 33.7278C93.3227 33.7502 93.5085 33.7766 93.6942 33.799L94.0683 33.853C95.1591 34.0154 96.2441 34.2126 97.3234 34.4445C98.9227 34.7922 100.976 34.9055 101.688 36.6576C101.914 37.2135 102.017 37.8313 102.142 38.4149L102.302 39.1591C102.306 39.1725 102.309 39.1862 102.311 39.2C102.688 40.9564 103.065 42.7128 103.442 44.4693C103.47 44.599 103.471 44.7331 103.444 44.8631C103.418 44.9931 103.365 45.1163 103.289 45.2249C103.213 45.3336 103.115 45.4254 103.002 45.4946C102.889 45.5638 102.762 45.6089 102.631 45.6272H102.62L102.39 45.6588L102.162 45.6891C101.44 45.7831 100.717 45.8709 99.9936 45.9526C98.5683 46.115 97.1408 46.2556 95.711 46.3741C92.87 46.6104 90.0233 46.7654 87.1708 46.8391C85.7174 46.8778 84.2644 46.8958 82.8118 46.8931C77.0301 46.8886 71.2534 46.5526 65.5101 45.8867C64.8883 45.8129 64.2666 45.7339 63.6448 45.6535C64.1269 45.7155 63.2944 45.6061 63.1258 45.5824C62.7306 45.5271 62.3354 45.4696 61.9402 45.4098C60.6136 45.2109 59.295 44.9659 57.9711 44.7512C56.3705 44.4877 54.8398 44.6195 53.3921 45.4098C52.2037 46.0601 51.2419 47.0574 50.6349 48.2684C50.0105 49.5594 49.8248 50.965 49.5455 52.3521C49.2662 53.7393 48.8315 55.2318 48.9962 56.6558C49.3505 59.7291 51.4991 62.2268 54.5895 62.7853C57.4968 63.3122 60.42 63.7391 63.351 64.1026C74.8648 65.5128 86.4968 65.6815 98.0466 64.6059C98.9872 64.518 99.9265 64.4223 100.864 64.3187C101.157 64.2865 101.454 64.3202 101.732 64.4175C102.01 64.5147 102.263 64.6729 102.472 64.8805C102.681 65.0882 102.842 65.34 102.941 65.6175C103.04 65.895 103.076 66.1912 103.046 66.4844L102.753 69.3271C102.164 75.0715 101.575 80.8155 100.986 86.559C100.371 92.5906 99.7521 98.6218 99.1295 104.652C98.9538 106.351 98.7782 108.049 98.6025 109.747C98.4339 111.418 98.4102 113.143 98.0927 114.795C97.5922 117.392 95.8335 118.988 93.2674 119.571C90.9164 120.106 88.5148 120.387 86.1038 120.409C83.431 120.423 80.7594 120.305 78.0866 120.319C75.2333 120.335 71.7384 120.072 69.5358 117.948C67.6007 116.083 67.3333 113.162 67.0698 110.637C66.7185 107.294 66.3703 103.951 66.0252 100.608L64.0887 82.0222L62.8359 69.9963C62.8149 69.7974 62.7938 69.6011 62.774 69.4009C62.6239 67.9664 61.6082 66.5621 60.0077 66.6345C58.6376 66.6951 57.0806 67.8596 57.2413 69.4009L58.17 78.3165L60.0906 96.7591C60.6378 101.998 61.1836 107.237 61.7281 112.477C61.8335 113.481 61.9323 114.488 62.0429 115.491C62.6449 120.977 66.834 123.933 72.0216 124.765C75.0515 125.253 78.1551 125.353 81.2297 125.403C85.1711 125.466 89.1521 125.618 93.029 124.904C98.7738 123.85 103.084 120.014 103.699 114.063C103.875 112.346 104.051 110.627 104.226 108.909C104.81 103.225 105.393 97.5407 105.976 91.856L107.88 73.2817L108.754 64.7692C108.797 64.3471 108.976 63.9502 109.262 63.6373C109.549 63.3244 109.929 63.112 110.345 63.0317C111.988 62.7115 113.558 62.1649 114.727 60.9147C116.587 58.9242 116.957 56.3291 116.299 53.7129ZM54.5052 55.5493C54.5302 55.5374 54.4841 55.7521 54.4644 55.8523C54.4604 55.7008 54.4683 55.5664 54.5052 55.5493ZM54.6646 56.7823C54.6778 56.7731 54.7173 56.8258 54.7581 56.889C54.6962 56.831 54.6567 56.7876 54.6633 56.7823H54.6646ZM54.8214 56.9891C54.9083 57.1459 54.878 57.0853 54.8214 56.9891ZM55.1362 57.2447H55.1441C55.1441 57.2539 55.1586 57.2631 55.1639 57.2723C55.1551 57.2622 55.1454 57.2529 55.1349 57.2447H55.1362ZM110.269 56.8626C109.679 57.4238 108.789 57.6847 107.911 57.8151C98.0572 59.2773 88.06 60.0176 78.0984 59.6909C70.9691 59.4472 63.9148 58.6555 56.8566 57.6583C56.165 57.5608 55.4155 57.4344 54.9399 56.9246C54.0441 55.9629 54.4841 54.0264 54.7173 52.8646C54.9307 51.8002 55.3391 50.3814 56.605 50.2299C58.581 49.9981 60.8758 50.8319 62.8307 51.1283C65.1843 51.4875 67.5467 51.7751 69.9179 51.9912C80.0375 52.9133 90.3271 52.7697 100.402 51.4208C102.238 51.174 104.068 50.8873 105.891 50.5606C107.516 50.2694 109.316 49.7228 110.298 51.405C110.971 52.551 111.06 54.0844 110.956 55.3793C110.924 55.9435 110.678 56.4742 110.267 56.8626H110.269Z" fill="#0D0C22"/>
<path fill-rule="evenodd" clip-rule="evenodd" d="M170.036 84.2403C169.461 85.3384 168.67 86.2948 167.663 87.1063C166.656 87.9184 165.482 88.5796 164.139 89.0887C162.797 89.599 161.446 89.9414 160.088 90.1159C158.729 90.2911 157.41 90.2759 156.133 90.068C154.854 89.8614 153.766 89.4396 152.872 88.802L153.88 78.3403C154.806 78.0222 155.972 77.6955 157.379 77.361C158.785 77.027 160.231 76.7876 161.718 76.6446C163.205 76.501 164.61 76.5179 165.937 76.6925C167.263 76.8676 168.31 77.2894 169.077 77.9585C169.493 78.3403 169.845 78.7543 170.132 79.2003C170.42 79.6464 170.595 80.1082 170.66 80.5858C170.819 81.9233 170.612 83.1415 170.036 84.2403ZM155.413 61.9551C156.084 61.5412 156.892 61.1745 157.834 60.8557C158.777 60.5382 159.744 60.3145 160.735 60.1873C161.725 60.0606 162.692 60.0436 163.636 60.1394C164.578 60.2351 165.41 60.4976 166.129 60.9273C166.848 61.3576 167.383 61.9788 167.735 62.7903C168.086 63.603 168.182 64.6302 168.022 65.872C167.895 66.8593 167.502 67.6956 166.848 68.3799C166.193 69.0653 165.393 69.638 164.451 70.0999C163.508 70.5623 162.509 70.9283 161.455 71.198C160.399 71.4695 159.384 71.6689 158.41 71.7956C157.435 71.9235 156.588 72.0035 155.869 72.0344C155.15 72.0665 154.678 72.0822 154.454 72.0822L155.413 61.9551ZM175.214 77.4804C174.703 76.3664 174.016 75.387 173.153 74.5422C172.29 73.6986 171.266 73.0859 170.084 72.7035C170.595 72.2895 171.099 71.6368 171.595 70.7447C172.09 69.8538 172.513 68.8817 172.865 67.8308C173.216 66.7793 173.457 65.7211 173.584 64.6539C173.711 63.5872 173.663 62.6715 173.441 61.9066C172.896 59.9964 172.042 58.4994 170.875 57.4164C169.708 56.334 168.35 55.5855 166.8 55.171C165.249 54.7583 163.54 54.6698 161.67 54.9086C159.8 55.1473 157.89 55.617 155.941 56.3176C155.941 56.1588 155.957 55.9916 155.989 55.8164C156.02 55.6419 156.036 55.4582 156.036 55.2667C156.036 54.7892 155.797 54.3758 155.317 54.0249C154.838 53.6746 154.287 53.468 153.664 53.4037C153.04 53.3407 152.433 53.4752 151.841 53.8098C151.25 54.1443 150.842 54.7583 150.619 55.6485C150.363 58.5152 150.107 61.4933 149.852 64.5818C149.596 67.6714 149.324 70.7926 149.037 73.9459C148.749 77.0985 148.461 80.2276 148.174 83.3324C147.886 86.4378 147.598 89.4232 147.311 92.2892C147.407 93.1492 147.646 93.8183 148.03 94.2959C148.413 94.774 148.861 95.0607 149.372 95.1559C149.883 95.2516 150.419 95.1631 150.978 94.8928C151.537 94.6231 152.025 94.1522 152.441 93.4838C153.719 94.1844 155.158 94.6383 156.756 94.8456C158.354 95.0522 159.975 95.0522 161.623 94.8456C163.268 94.6383 164.89 94.2486 166.488 93.6747C168.086 93.1019 169.541 92.385 170.851 91.5256C172.162 90.6656 173.264 89.6856 174.16 88.5875C175.054 87.4881 175.646 86.302 175.933 85.0287C176.221 83.7227 176.301 82.4173 176.173 81.1112C176.045 79.8058 175.725 78.5961 175.214 77.4804Z" fill="#0D0C23"/>
<path fill-rule="evenodd" clip-rule="evenodd" d="M221.989 102.703C221.814 103.754 221.565 104.861 221.246 106.024C220.926 107.185 220.551 108.245 220.12 109.201C219.688 110.156 219.209 110.927 218.682 111.517C218.154 112.106 217.586 112.353 216.979 112.258C216.5 112.193 216.196 111.891 216.069 111.35C215.94 110.808 215.94 110.139 216.069 109.344C216.196 108.547 216.443 107.647 216.811 106.644C217.179 105.641 217.627 104.645 218.154 103.659C218.682 102.671 219.281 101.724 219.952 100.816C220.623 99.9091 221.326 99.1521 222.061 98.5473C222.221 98.7382 222.293 99.2158 222.277 99.9806C222.26 100.745 222.165 101.653 221.989 102.703ZM238.243 81.9706C237.811 81.493 237.284 81.2227 236.66 81.1585C236.037 81.0948 235.405 81.4451 234.767 82.2094C234.351 82.9736 233.823 83.7063 233.184 84.4069C232.545 85.1081 231.882 85.7445 231.195 86.3178C230.507 86.8905 229.852 87.385 229.229 87.7984C228.606 88.2129 228.118 88.5153 227.767 88.7062C227.639 87.6875 227.566 86.5887 227.551 85.4099C227.534 84.2317 227.559 83.0378 227.623 81.8275C227.718 80.1076 227.918 78.3724 228.222 76.6203C228.526 74.8689 228.965 73.1489 229.541 71.4604C229.541 70.5695 229.332 69.8447 228.917 69.2871C228.501 68.7302 227.998 68.3793 227.407 68.2362C226.815 68.0932 226.209 68.1726 225.585 68.475C224.962 68.778 224.427 69.3277 223.979 70.1229C223.596 71.1744 223.156 72.3525 222.661 73.658C222.165 74.964 221.606 76.2937 220.983 77.647C220.359 79.0015 219.664 80.3148 218.897 81.5882C218.13 82.8627 217.291 83.9936 216.38 84.9802C215.469 85.9675 214.478 86.7402 213.408 87.2972C212.336 87.8547 211.179 88.1014 209.932 88.0378C209.356 87.8784 208.94 87.4487 208.685 86.7475C208.429 86.0475 208.277 85.1711 208.23 84.1202C208.182 83.0693 208.23 81.9148 208.373 80.6566C208.517 79.3991 208.709 78.1488 208.949 76.907C209.188 75.6646 209.452 74.4864 209.739 73.3719C210.027 72.2574 210.298 71.3174 210.554 70.5532C210.938 69.6301 210.938 68.8568 210.554 68.2362C210.171 67.615 209.644 67.2017 208.973 66.9938C208.302 66.7872 207.598 66.7956 206.863 67.0181C206.128 67.2411 205.6 67.7344 205.281 68.4986C204.737 69.8053 204.241 71.2695 203.794 72.8937C203.347 74.518 202.987 76.1985 202.716 77.9337C202.444 79.67 202.291 81.39 202.26 83.0936C202.258 83.2045 202.263 83.3099 202.263 83.4202C201.566 85.2717 200.902 86.6711 200.271 87.6075C199.456 88.8183 198.536 89.3438 197.514 89.1838C197.065 88.9929 196.771 88.5474 196.627 87.8462C196.482 87.1462 196.435 86.2863 196.482 85.2663C196.531 84.2481 196.651 83.0936 196.842 81.8033C197.035 80.5136 197.273 79.1761 197.561 77.7906C197.849 76.4046 198.153 75.0125 198.472 73.6107C198.792 72.2095 199.079 70.8877 199.336 69.6453C199.304 68.5308 198.976 67.6793 198.352 67.0896C197.73 66.5011 196.858 66.2702 195.74 66.3969C194.973 66.7156 194.405 67.1302 194.038 67.6393C193.67 68.1483 193.374 68.8017 193.151 69.5974C193.022 70.012 192.831 70.8398 192.575 72.0822C192.319 73.3234 191.992 74.7495 191.592 76.3573C191.193 77.9664 190.721 79.6458 190.178 81.3972C189.635 83.1487 189.027 84.7342 188.357 86.1505C187.685 87.5675 186.95 88.7062 186.151 89.5662C185.352 90.4256 184.489 90.7765 183.562 90.6171C183.05 90.5214 182.723 89.9959 182.579 89.0408C182.435 88.085 182.412 86.9075 182.507 85.5057C182.603 84.1045 182.795 82.5675 183.082 80.896C183.37 79.2239 183.665 77.6397 183.969 76.1422C184.273 74.6458 184.553 73.3234 184.809 72.1774C185.064 71.0307 185.24 70.2665 185.336 69.8847C185.336 68.9611 185.127 68.2211 184.713 67.6629C184.297 67.1065 183.794 66.7556 183.202 66.612C182.61 66.469 182.003 66.5484 181.381 66.8508C180.757 67.1538 180.222 67.7035 179.774 68.4986C179.614 69.3586 179.406 70.3544 179.151 71.4847C178.895 72.6149 178.648 73.7774 178.408 74.9719C178.168 76.1664 177.944 77.3367 177.737 78.4833C177.529 79.63 177.377 80.633 177.281 81.493C177.217 82.1615 177.145 82.9821 177.066 83.953C176.985 84.9251 176.945 85.9517 176.945 87.0341C176.945 88.1178 177.025 89.1923 177.186 90.2589C177.345 91.3262 177.633 92.3056 178.048 93.1965C178.463 94.0886 179.047 94.8207 179.799 95.394C180.549 95.9673 181.5 96.2855 182.651 96.3498C183.833 96.4128 184.864 96.3261 185.744 96.0867C186.622 95.8479 187.421 95.4734 188.141 94.9637C188.86 94.4552 189.515 93.8498 190.107 93.1486C190.697 92.4486 191.281 91.6844 191.856 90.8559C192.4 92.0668 193.103 93.0056 193.966 93.6746C194.829 94.3431 195.74 94.7419 196.699 94.8686C197.657 94.9952 198.633 94.8613 199.624 94.4625C200.614 94.0649 201.509 93.388 202.308 92.4322C202.835 91.8462 203.331 91.1801 203.797 90.4438C203.995 90.7886 204.205 91.1213 204.442 91.4286C205.225 92.4486 206.288 93.1486 207.631 93.531C209.069 93.9134 210.474 93.9777 211.849 93.7225C213.223 93.468 214.534 93.0056 215.78 92.3371C217.027 91.668 218.185 90.8644 219.257 89.9244C220.327 88.985 221.262 88.0062 222.061 86.9863C222.029 87.719 222.013 88.4123 222.013 89.0644C222.013 89.7177 221.997 90.4256 221.966 91.1904C220.367 92.3056 218.857 93.6431 217.435 95.2031C216.012 96.7631 214.765 98.4273 213.695 100.195C212.624 101.962 211.785 103.754 211.179 105.569C210.571 107.385 210.275 109.081 210.291 110.658C210.307 112.234 210.682 113.611 211.418 114.789C212.152 115.968 213.351 116.811 215.013 117.321C216.74 117.863 218.257 117.878 219.569 117.369C220.879 116.859 222.021 116.015 222.996 114.837C223.971 113.659 224.77 112.234 225.394 110.562C226.017 108.89 226.512 107.146 226.88 105.331C227.247 103.516 227.479 101.731 227.575 99.9806C227.671 98.2285 227.671 96.6673 227.575 95.2983C230.324 94.1522 232.577 92.7031 234.335 90.951C236.093 89.2008 237.547 87.3529 238.698 85.4099C239.049 84.9323 239.169 84.359 239.058 83.6905C238.945 83.0215 238.674 82.4481 238.243 81.9706Z" fill="#0D0C23"/>
<path fill-rule="evenodd" clip-rule="evenodd" d="M298.724 78.9136C298.82 78.1815 298.964 77.4088 299.155 76.5967C299.347 75.7846 299.587 74.9961 299.875 74.2319C300.162 73.4677 300.498 72.8071 300.882 72.2495C301.265 71.6925 301.673 71.2944 302.104 71.055C302.536 70.8168 302.974 70.8404 303.423 71.1265C303.902 71.4138 304.197 72.0186 304.31 72.9416C304.421 73.8664 304.31 74.8531 303.974 75.904C303.638 76.9555 303.039 77.9421 302.176 78.8658C301.313 79.79 300.146 80.3942 298.676 80.6809C298.612 80.2361 298.628 79.6464 298.724 78.9136ZM315.336 80.8718C314.809 80.7136 314.306 80.6973 313.826 80.8245C313.347 80.9518 313.043 81.2863 312.916 81.8282C312.659 82.8469 312.251 83.8899 311.692 84.9566C311.133 86.0239 310.446 87.0347 309.632 87.9905C308.817 88.9456 307.897 89.7899 306.875 90.522C305.851 91.2547 304.781 91.7801 303.662 92.0983C302.543 92.4492 301.616 92.4886 300.882 92.2177C300.146 91.948 299.563 91.4856 299.132 90.8329C298.7 90.1802 298.388 89.3917 298.197 88.4681C298.005 87.5444 297.893 86.5893 297.861 85.6014C299.683 85.7293 301.305 85.4033 302.728 84.6221C304.149 83.8427 305.356 82.8069 306.347 81.5172C307.337 80.2276 308.089 78.7785 308.6 77.17C309.111 75.5622 309.399 73.9616 309.463 72.3689C309.495 70.8719 309.272 69.6065 308.792 68.5714C308.313 67.5368 307.665 66.7314 306.85 66.1587C306.036 65.5854 305.1 65.2508 304.046 65.1557C302.992 65.0599 301.92 65.2035 300.833 65.5854C299.522 66.0314 298.412 66.7556 297.501 67.7593C296.59 68.7623 295.831 69.9253 295.224 71.2465C294.617 72.5683 294.137 73.9931 293.786 75.5216C293.434 77.0506 293.178 78.5555 293.019 80.0367C292.875 81.3657 292.798 82.6366 292.771 83.8633C292.702 84.019 292.636 84.1687 292.563 84.3354C292.067 85.4669 291.491 86.5735 290.837 87.6559C290.182 88.739 289.454 89.6468 288.656 90.3789C287.857 91.1117 287.026 91.3662 286.163 91.1432C285.651 91.0165 285.372 90.4262 285.324 89.3759C285.276 88.3244 285.331 87.019 285.491 85.4584C285.651 83.8984 285.835 82.2094 286.043 80.3942C286.25 78.5791 286.354 76.844 286.354 75.1876C286.354 73.7543 286.082 72.3774 285.539 71.055C284.995 69.7344 284.252 68.635 283.31 67.7593C282.367 66.8829 281.272 66.3017 280.026 66.0157C278.779 65.7284 277.437 65.9199 275.999 66.5884C274.56 67.2575 273.417 68.1968 272.571 69.4071C271.723 70.618 270.948 71.8913 270.245 73.2289C269.989 72.2095 269.614 71.2629 269.118 70.3865C268.623 69.5108 268.016 68.7465 267.297 68.0932C266.577 67.4411 265.769 66.9314 264.876 66.5647C263.981 66.1993 263.037 66.0157 262.046 66.0157C261.088 66.0157 260.201 66.1993 259.386 66.5647C258.571 66.9314 257.828 67.4005 257.156 67.9738C256.485 68.5477 255.878 69.192 255.334 69.9089C254.791 70.6253 254.311 71.3344 253.896 72.0344C253.831 71.2065 253.76 70.4823 253.681 69.8604C253.6 69.2399 253.456 68.7144 253.249 68.2847C253.041 67.8544 252.746 67.5284 252.362 67.3053C251.978 67.0829 251.435 66.9708 250.732 66.9708C250.38 66.9708 250.028 67.0423 249.677 67.1853C249.325 67.329 249.013 67.5284 248.742 67.7829C248.47 68.0387 248.263 68.3483 248.119 68.7144C247.975 69.0805 247.936 69.5029 247.999 69.9804C248.031 70.3313 248.119 70.7526 248.263 71.2465C248.406 71.7404 248.542 72.3859 248.67 73.181C248.798 73.9774 248.902 74.941 248.982 76.0713C249.062 77.2022 249.085 78.5876 249.054 80.2276C249.021 81.8682 248.902 83.7863 248.694 85.9838C248.486 88.1814 248.158 90.7292 247.711 93.6268C247.647 94.2958 247.903 94.8377 248.479 95.2516C249.054 95.6649 249.709 95.9037 250.444 95.9679C251.179 96.0316 251.875 95.9037 252.53 95.5861C253.185 95.2667 253.561 94.7098 253.656 93.914C253.752 92.4171 253.936 90.825 254.208 89.1365C254.479 87.4493 254.815 85.7772 255.215 84.1208C255.614 82.4651 256.069 80.8888 256.581 79.3912C257.092 77.8943 257.66 76.5731 258.283 75.4264C258.907 74.2798 259.554 73.3646 260.225 72.6798C260.896 71.995 261.599 71.6525 262.335 71.6525C263.229 71.6525 263.924 72.058 264.42 72.8701C264.915 73.6828 265.266 74.7264 265.475 75.9991C265.682 77.2737 265.778 78.6676 265.763 80.1797C265.746 81.6924 265.682 83.1493 265.571 84.5505C265.459 85.9523 265.331 87.202 265.187 88.3008C265.043 89.3996 264.939 90.1565 264.876 90.5698C264.876 91.3026 265.155 91.8832 265.714 92.3135C266.273 92.7431 266.896 92.9983 267.584 93.0777C268.272 93.1577 268.918 93.0298 269.526 92.6953C270.133 92.3607 270.485 91.7965 270.581 90.9995C270.9 88.7068 271.34 86.4063 271.899 84.0972C272.458 81.7882 273.098 79.7185 273.817 77.887C274.536 76.0555 275.335 74.5586 276.214 73.3962C277.093 72.2344 278.028 71.6525 279.019 71.6525C279.53 71.6525 279.922 72.0034 280.193 72.7034C280.465 73.404 280.601 74.3592 280.601 75.5695C280.601 76.4616 280.529 77.3773 280.386 78.3167C280.241 79.2561 280.074 80.2276 279.882 81.2306C279.69 82.2342 279.522 83.2609 279.378 84.3118C279.235 85.3633 279.163 86.4614 279.163 87.6081C279.163 88.4044 279.243 89.328 279.403 90.3789C279.562 91.4292 279.865 92.4256 280.313 93.3643C280.761 94.3043 281.376 95.1001 282.16 95.7528C282.943 96.4055 283.941 96.7322 285.155 96.7322C286.978 96.7322 288.591 96.3419 289.998 95.5619C291.404 94.7819 292.611 93.7631 293.618 92.505C293.67 92.4389 293.718 92.3686 293.769 92.3032C293.846 92.4892 293.914 92.6862 294.001 92.8631C294.688 94.2643 295.623 95.3467 296.806 96.1116C297.988 96.8758 299.379 97.2976 300.978 97.3776C302.575 97.4564 304.317 97.1619 306.204 96.4934C307.609 95.9837 308.832 95.3467 309.871 94.5825C310.909 93.8183 311.844 92.8868 312.675 91.788C313.507 90.6892 314.265 89.4232 314.953 87.9905C315.641 86.5566 316.335 84.9172 317.038 83.0693C317.166 82.5609 317.046 82.1069 316.679 81.7082C316.311 81.3106 315.864 81.0318 315.336 80.8718Z" fill="#0D0C23"/>
<path fill-rule="evenodd" clip-rule="evenodd" d="M341.393 75.5437C341.233 76.4837 341.018 77.5194 340.746 78.6491C340.474 79.78 340.131 80.9503 339.715 82.1606C339.3 83.3708 338.788 84.4617 338.181 85.4326C337.574 86.4047 336.878 87.1762 336.096 87.7496C335.312 88.3229 334.41 88.5617 333.387 88.4659C332.875 88.4029 332.483 88.0526 332.212 87.415C331.94 86.7787 331.797 85.966 331.78 84.9787C331.764 83.992 331.852 82.909 332.044 81.7303C332.236 80.5527 332.531 79.3976 332.932 78.2667C333.331 77.137 333.818 76.0934 334.393 75.1376C334.969 74.1825 335.632 73.4419 336.383 72.9165C337.134 72.391 337.958 72.145 338.852 72.1759C339.747 72.208 340.706 72.6534 341.729 73.5134C341.664 73.928 341.553 74.6049 341.393 75.5437ZM358.437 79.1982C357.941 78.9436 357.43 78.8885 356.903 79.0315C356.376 79.1745 356 79.6606 355.777 80.4885C355.649 81.3806 355.361 82.4309 354.914 83.6411C354.466 84.8514 353.914 85.9987 353.26 87.0805C352.604 88.1635 351.853 89.0635 351.006 89.7798C350.159 90.4968 349.256 90.8235 348.298 90.7586C347.498 90.6956 346.938 90.2895 346.62 89.5411C346.299 88.7926 346.132 87.8538 346.116 86.7223C346.099 85.5926 346.212 84.3187 346.451 82.9012C346.691 81.4842 346.979 80.0751 347.314 78.6727C347.65 77.2721 347.994 75.9261 348.346 74.6364C348.697 73.3468 348.984 72.2559 349.209 71.3644C349.464 70.568 349.384 69.8917 348.969 69.3335C348.553 68.7771 348.034 68.3783 347.411 68.1396C346.787 67.9008 346.155 67.8371 345.516 67.9486C344.877 68.0602 344.462 68.4026 344.27 68.9753C342.384 67.3511 340.57 66.4753 338.829 66.3481C337.086 66.2208 335.48 66.6032 334.01 67.4947C332.539 68.3862 331.237 69.6759 330.103 71.3644C328.968 73.0528 328.049 74.8916 327.345 76.8819C326.642 78.8721 326.203 80.903 326.027 82.9727C325.851 85.0429 325.987 86.9302 326.435 88.6338C326.883 90.3374 327.673 91.7313 328.808 92.8131C329.942 93.8961 331.485 94.438 333.435 94.438C334.298 94.438 335.129 94.2628 335.928 93.9125C336.726 93.5616 337.462 93.1477 338.133 92.6701C338.804 92.1925 339.395 91.6907 339.908 91.1653C340.418 90.6398 340.818 90.2023 341.106 89.8514C341.329 90.998 341.697 91.9701 342.209 92.7659C342.719 93.5616 343.303 94.2155 343.958 94.724C344.613 95.2331 345.301 95.6076 346.02 95.847C346.739 96.0858 347.435 96.2052 348.105 96.2052C349.608 96.2052 351.013 95.6955 352.325 94.6761C353.635 93.658 354.81 92.4071 355.849 90.9265C356.887 89.4453 357.743 87.8853 358.413 86.2447C359.085 84.6048 359.532 83.1478 359.756 81.8733C359.98 81.3957 359.939 80.8945 359.636 80.3691C359.332 79.8436 358.933 79.4539 358.437 79.1982Z" fill="#0D0C23"/>
<path fill-rule="evenodd" clip-rule="evenodd" d="M444.738 105.571C444.467 106.653 444.043 107.57 443.467 108.318C442.892 109.066 442.173 109.456 441.31 109.489C440.767 109.52 440.351 109.233 440.063 108.629C439.776 108.023 439.576 107.243 439.464 106.288C439.352 105.332 439.304 104.265 439.32 103.087C439.336 101.909 439.384 100.746 439.464 99.5998C439.543 98.4538 439.64 97.3859 439.752 96.3993C439.863 95.4114 439.951 94.6484 440.015 94.1066C441.102 94.2338 442.006 94.7029 442.724 95.5156C443.443 96.3277 443.995 97.2908 444.378 98.4059C444.762 99.5204 444.985 100.723 445.05 102.012C445.113 103.302 445.009 104.488 444.738 105.571ZM427.382 105.571C427.111 106.653 426.687 107.57 426.112 108.318C425.537 109.066 424.817 109.456 423.954 109.489C423.411 109.52 422.996 109.233 422.708 108.629C422.42 108.023 422.22 107.243 422.109 106.288C421.996 105.332 421.948 104.265 421.965 103.087C421.98 101.909 422.028 100.746 422.109 99.5998C422.188 98.4538 422.284 97.3859 422.396 96.3993C422.508 95.4114 422.595 94.6484 422.66 94.1066C423.746 94.2338 424.65 94.7029 425.368 95.5156C426.088 96.3277 426.639 97.2908 427.023 98.4059C427.407 99.5204 427.63 100.723 427.694 102.012C427.757 103.302 427.653 104.488 427.382 105.571ZM409.572 78.4377C409.539 79.2013 409.467 79.8783 409.355 80.4674C409.243 81.0577 409.092 81.431 408.9 81.5904C408.548 81.3989 408.116 80.9062 407.605 80.1092C407.094 79.3135 406.695 78.4129 406.406 77.4098C406.119 76.4068 406.03 75.4202 406.143 74.4481C406.254 73.4772 406.758 72.7214 407.653 72.179C408.004 71.9881 408.308 72.0596 408.564 72.3942C408.82 72.7287 409.027 73.2141 409.188 73.8511C409.347 74.4887 409.458 75.2208 409.523 76.0487C409.587 76.8771 409.603 77.6729 409.572 78.4377ZM405.328 87.9679C404.832 88.4927 404.28 88.9466 403.674 89.3291C403.066 89.7115 402.443 89.9981 401.804 90.1891C401.164 90.3806 400.589 90.4278 400.078 90.3321C398.64 90.046 397.537 89.4242 396.77 88.4691C396.003 87.5139 395.515 86.3915 395.308 85.1019C395.1 83.8116 395.123 82.434 395.38 80.9692C395.635 79.5044 396.066 78.1432 396.674 76.885C397.281 75.6268 398.017 74.5438 398.879 73.6366C399.742 72.7287 400.685 72.1639 401.708 71.9402C401.324 73.5644 401.197 75.245 401.324 76.9802C401.452 78.7159 401.868 80.348 402.571 81.8764C403.018 82.8013 403.554 83.6443 404.177 84.4085C404.801 85.1734 405.56 85.8261 406.455 86.3673C406.199 86.9091 405.823 87.4424 405.328 87.9679ZM458.378 78.9153C458.474 78.1832 458.617 77.4098 458.81 76.5977C459.001 75.7862 459.241 74.9978 459.528 74.2335C459.816 73.4687 460.152 72.8081 460.536 72.2511C460.92 71.6942 461.326 71.2954 461.758 71.0566C462.19 70.8178 462.629 70.8415 463.076 71.1281C463.556 71.4154 463.851 72.0202 463.963 72.9432C464.075 73.8675 463.963 74.8541 463.628 75.9056C463.292 76.9565 462.693 77.9438 461.83 78.8668C460.968 79.7916 459.8 80.3959 458.33 80.6825C458.266 80.2371 458.282 79.648 458.378 78.9153ZM477.7 78.9153C477.796 78.1832 477.939 77.4098 478.131 76.5977C478.323 75.7862 478.563 74.9978 478.851 74.2335C479.138 73.4687 479.473 72.8081 479.857 72.2511C480.241 71.6942 480.649 71.2954 481.08 71.0566C481.512 70.8178 481.951 70.8415 482.398 71.1281C482.878 71.4154 483.173 72.0202 483.285 72.9432C483.397 73.8675 483.285 74.8541 482.95 75.9056C482.614 76.9565 482.015 77.9438 481.152 78.8668C480.289 79.7916 479.122 80.3959 477.652 80.6825C477.588 80.2371 477.604 79.648 477.7 78.9153ZM495.655 81.7098C495.287 81.3122 494.84 81.0334 494.313 80.8734C493.785 80.7146 493.282 80.6989 492.802 80.8262C492.323 80.9534 492.018 81.288 491.891 81.8292C491.635 82.8486 491.228 83.8916 490.669 84.9576C490.109 86.0255 489.422 87.0364 488.607 87.9915C487.792 88.9466 486.873 89.7915 485.851 90.5236C484.827 91.2563 483.757 91.7818 482.639 92.0993C481.519 92.4508 480.592 92.4902 479.857 92.2193C479.122 91.949 478.539 91.4872 478.107 90.8345C477.676 90.1812 477.365 89.3933 477.172 88.4691C476.981 87.5461 476.868 86.5909 476.837 85.6031C478.659 85.7309 480.281 85.4049 481.703 84.6237C483.125 83.8437 484.332 82.8079 485.324 81.5183C486.314 80.2292 487.065 78.7801 487.576 77.1717C488.087 75.5632 488.375 73.9632 488.44 72.3705C488.471 70.8736 488.247 69.6075 487.768 68.5724C487.289 67.5379 486.642 66.733 485.827 66.1603C485.011 65.5864 484.077 65.2524 483.021 65.1567C481.967 65.0609 480.896 65.2052 479.809 65.5864C478.498 66.033 477.388 66.7573 476.478 67.7603C475.567 68.7639 474.807 69.9269 474.2 71.2475C473.592 72.5699 473.113 73.9941 472.761 75.5232C472.409 77.0517 472.154 78.5571 471.995 80.0377C471.839 81.4746 471.755 82.8498 471.736 84.1661C471.615 84.4285 471.486 84.6922 471.347 84.9576C470.787 86.0255 470.1 87.0364 469.285 87.9915C468.471 88.9466 467.551 89.7915 466.529 90.5236C465.506 91.2563 464.435 91.7818 463.317 92.0993C462.197 92.4508 461.271 92.4902 460.536 92.2193C459.8 91.949 459.217 91.4872 458.786 90.8345C458.355 90.1812 458.043 89.3933 457.851 88.4691C457.659 87.5461 457.547 86.5909 457.515 85.6031C459.337 85.7309 460.959 85.4049 462.382 84.6237C463.803 83.8437 465.01 82.8079 466.001 81.5183C466.992 80.2292 467.743 78.7801 468.254 77.1717C468.765 75.5632 469.054 73.9632 469.117 72.3705C469.149 70.8736 468.926 69.6075 468.447 68.5724C467.967 67.5379 467.319 66.733 466.504 66.1603C465.689 65.5864 464.755 65.2524 463.7 65.1567C462.645 65.0609 461.574 65.2052 460.488 65.5864C459.176 66.033 458.066 66.7573 457.156 67.7603C456.245 68.7639 455.485 69.9269 454.878 71.2475C454.271 72.5699 453.792 73.9941 453.44 75.5232C453.088 77.0517 452.832 78.5571 452.673 80.0377C452.582 80.8728 452.522 81.6825 452.477 82.4776C452.168 82.7395 451.867 83.0031 451.546 83.2619C450.444 84.154 449.284 84.9576 448.07 85.6746C446.855 86.3915 445.592 86.9806 444.283 87.4424C442.971 87.9042 441.629 88.183 440.255 88.2782L443.228 56.558C443.42 55.8889 443.324 55.3005 442.94 54.7908C442.557 54.2811 442.061 53.9308 441.454 53.7399C440.847 53.5484 440.199 53.5647 439.512 53.7872C438.824 54.0108 438.258 54.5205 437.81 55.3156C437.586 56.5265 437.354 58.1822 437.115 60.284C436.875 62.3858 436.635 64.6791 436.396 67.1633C436.156 69.6475 435.916 72.2111 435.677 74.8541C435.437 77.4983 435.229 79.9662 435.053 82.2589C435.045 82.3607 435.039 82.4528 435.031 82.5534C434.751 82.7898 434.48 83.0279 434.19 83.2619C433.088 84.154 431.928 84.9576 430.714 85.6746C429.499 86.3915 428.237 86.9806 426.927 87.4424C425.616 87.9042 424.273 88.183 422.899 88.2782L425.872 56.558C426.064 55.8889 425.968 55.3005 425.585 54.7908C425.201 54.2811 424.705 53.9308 424.098 53.7399C423.491 53.5484 422.843 53.5647 422.156 53.7872C421.469 54.0108 420.902 54.5205 420.454 55.3156C420.23 56.5265 419.999 58.1822 419.76 60.284C419.519 62.3858 419.28 64.6791 419.04 67.1633C418.8 69.6475 418.561 72.2111 418.321 74.8541C418.082 77.4983 417.873 79.9662 417.698 82.2589C417.694 82.3049 417.691 82.3467 417.687 82.3928C417.185 82.6249 416.638 82.8286 416.043 82.9995C415.436 83.1752 414.749 83.2788 413.982 83.3104C414.11 82.7364 414.213 82.0995 414.293 81.3989C414.373 80.6989 414.438 79.9662 414.486 79.2013C414.534 78.4377 414.549 77.6729 414.534 76.9086C414.517 76.1438 414.477 75.4438 414.414 74.8062C414.253 73.4378 413.958 72.1396 413.527 70.913C413.095 69.6875 412.512 68.6609 411.777 67.8318C411.041 67.0039 410.123 66.4464 409.019 66.1603C407.917 65.8736 406.63 65.9688 405.161 66.4464C402.986 66.1603 401.029 66.3597 399.287 67.0439C397.545 67.7294 396.034 68.7239 394.756 70.0293C393.478 71.336 392.431 72.8717 391.616 74.6396C390.801 76.4068 390.257 78.2226 389.986 80.085C389.871 80.8746 389.815 81.6607 389.798 82.4449C389.303 83.4546 388.761 84.337 388.164 85.0776C387.317 86.1285 386.438 86.9885 385.527 87.657C384.616 88.326 383.713 88.8357 382.819 89.186C381.923 89.5369 381.124 89.7757 380.421 89.9024C379.59 90.0618 378.791 90.0781 378.024 89.9503C377.257 89.8236 376.553 89.4569 375.915 88.8515C375.403 88.406 375.011 87.6891 374.74 86.7018C374.468 85.7146 374.309 84.5928 374.261 83.334C374.213 82.0758 374.261 80.7619 374.404 79.3928C374.548 78.0238 374.795 76.7256 375.147 75.4996C375.499 74.2735 375.945 73.1748 376.49 72.2026C377.032 71.2324 377.672 70.539 378.408 70.1251C378.822 70.1893 379.079 70.4354 379.175 70.8651C379.271 71.2954 379.294 71.8051 379.246 72.3942C379.199 72.9838 379.127 73.5887 379.031 74.2093C378.935 74.8305 378.887 75.3487 378.887 75.762C379.047 76.622 379.358 77.2911 379.822 77.7686C380.285 78.2462 380.805 78.5256 381.38 78.6044C381.955 78.6844 382.522 78.5492 383.083 78.1983C383.641 77.8486 384.096 77.2911 384.449 76.5262C384.48 76.5583 384.528 76.5741 384.592 76.5741L385.264 70.5075C385.455 69.679 385.327 68.9469 384.88 68.31C384.432 67.673 383.841 67.3064 383.106 67.2112C382.179 65.8736 380.924 65.1652 379.342 65.0852C377.76 65.0058 376.138 65.5233 374.476 66.6379C373.453 67.3712 372.55 68.3815 371.767 69.6712C370.983 70.9615 370.345 72.3942 369.85 73.9705C369.353 75.5468 369.002 77.2117 368.795 78.9632C368.587 80.7146 368.547 82.4189 368.674 84.074C368.802 85.7309 369.098 87.2915 369.562 88.7557C370.025 90.2212 370.672 91.4472 371.504 92.4339C372.207 93.2939 373.005 93.9235 373.9 94.3217C374.795 94.7199 375.73 94.966 376.705 95.0617C377.68 95.1569 378.647 95.1169 379.606 94.9423C380.565 94.7678 381.476 94.5211 382.339 94.2017C383.457 93.7884 384.609 93.2623 385.791 92.6254C386.973 91.989 388.108 91.2242 389.195 90.3321C389.767 89.863 390.317 89.3515 390.849 88.803C391.091 89.4018 391.362 89.9812 391.688 90.5236C392.551 91.9563 393.717 93.1193 395.188 94.0108C396.657 94.9023 398.464 95.3314 400.605 95.3005C402.907 95.2684 405.032 94.6878 406.982 93.5569C408.932 92.4272 410.53 90.7618 411.777 88.5648C413.644 88.5648 415.481 88.2582 417.287 87.6491C417.272 87.8418 417.256 88.0448 417.242 88.2309C417.115 89.9188 417.05 91.0648 417.05 91.6702C417.019 92.7211 416.947 94.0187 416.835 95.5629C416.723 97.1077 416.651 98.732 416.619 100.435C416.588 102.139 416.651 103.859 416.811 105.595C416.971 107.33 417.306 108.907 417.818 110.325C418.328 111.741 419.055 112.944 419.999 113.932C420.941 114.918 422.18 115.508 423.715 115.699C425.345 115.921 426.751 115.635 427.934 114.839C429.116 114.042 430.075 112.952 430.811 111.567C431.546 110.181 432.064 108.581 432.369 106.766C432.672 104.95 432.76 103.127 432.633 101.295C432.504 99.4641 432.168 97.7368 431.625 96.1132C431.082 94.4884 430.33 93.1508 429.372 92.0993C429.948 91.9411 430.634 91.6387 431.434 91.1921C432.232 90.7466 433.055 90.2448 433.903 89.6872C434.111 89.5503 434.316 89.406 434.524 89.2654C434.446 90.3939 434.406 91.1987 434.406 91.6702C434.375 92.7211 434.303 94.0187 434.19 95.5629C434.079 97.1077 434.007 98.732 433.975 100.435C433.943 102.139 434.007 103.859 434.167 105.595C434.326 107.33 434.662 108.907 435.173 110.325C435.684 111.741 436.412 112.944 437.354 113.932C438.297 114.918 439.536 115.508 441.071 115.699C442.7 115.921 444.106 115.635 445.289 114.839C446.472 114.042 447.431 112.952 448.166 111.567C448.901 110.181 449.42 108.581 449.724 106.766C450.028 104.95 450.115 103.127 449.988 101.295C449.86 99.4641 449.524 97.7368 448.982 96.1132C448.437 94.4884 447.687 93.1508 446.727 92.0993C447.303 91.9411 447.99 91.6387 448.789 91.1921C449.588 90.7466 450.411 90.2448 451.259 89.6872C451.699 89.3976 452.136 89.0988 452.573 88.7915C452.737 90.349 453.091 91.7151 453.655 92.8642C454.343 94.266 455.277 95.3484 456.46 96.1132C457.642 96.8768 459.033 97.2992 460.632 97.3786C462.23 97.4574 463.971 97.1635 465.858 96.4944C467.264 95.9853 468.486 95.3484 469.525 94.5841C470.563 93.8193 471.498 92.8878 472.33 91.7896C472.378 91.726 472.423 91.6569 472.47 91.5927C472.618 92.0387 472.782 92.4672 472.977 92.8642C473.665 94.266 474.6 95.3484 475.782 96.1132C476.964 96.8768 478.355 97.2992 479.953 97.3786C481.551 97.4574 483.293 97.1635 485.179 96.4944C486.586 95.9853 487.808 95.3484 488.847 94.5841C489.885 93.8193 490.82 92.8878 491.652 91.7896C492.483 90.6903 493.241 89.4242 493.929 87.9915C494.616 86.5582 495.311 84.9188 496.015 83.071C496.142 82.5619 496.022 82.108 495.655 81.7098Z" fill="#0D0C23"/>
</g>
<defs>
<clipPath id="clip0_62_55">
<rect width="545" height="153" fill="white"/>
</clipPath>
</defs>
</svg>
